<svg xmlns="http://www.w3.org/2000/svg" viewBox="0 0 16 16">
    <path fill="currentColor"
        d="M11.013 1.427a1.75 1.75 0 0 1 2.474 0l1.086 1.086a1.75 1.75 0 0 1 0 2.474l-8.61 8.61c-.21.21-.47.364-.756.445l-3.251.93a.75.75 0 0 1-.927-.928l.929-3.25a1.75 1.75 0 0 1 .445-.758l8.61-8.61Zm1.414 1.06a.25.25 0 0 0-.354 0L10.811 3.75l1.439 1.44 1.263-1.263a.25.25 0 0 0 0-.354l-1.086-1.086ZM11.189 6.25l-1.44-1.44L3.515 11.044a.25.25 0 0 0-.064.108l-.437 1.53 1.53-.437a.25.25 0 0 0 .108-.063l6.537-6.537Z" />
</svg>